<svg xmlns="http://www.w3.org/2000/svg" width="30" height="30" viewBox="0 0 30 30"><g fill="#3489CE"><path d="M15.04 4.35h.03c.27 0 .51-.12.69-.3.18-.18.27-.42.27-.69l-.08-2.46c-.03-.51-.46-.9-1-.9h-.03c-.54.03-.99.45-.96.96l.09 2.46c.03.54.45.93.99.93zM8.86 5.22c.18.27.51.46.84.46h.03c.18 0 .33-.06.48-.15.24-.12.39-.33.45-.6.06-.24 0-.51-.12-.72l-1.38-2.08c-.18-.27-.51-.45-.84-.45-.18 0-.36.06-.54.15-.24.12-.39.33-.45.57-.03.3 0 .54.15.75l1.38 2.07zm.84.27zM3 8.08l2.28 1.14c.15.06.3.09.48.09h.03c.36 0 .69-.18.84-.48.12-.21.15-.48.09-.72-.08-.24-.23-.42-.47-.54l-2.29-1.14c-.15-.06-.3-.12-.48-.12-.36 0-.72.18-.87.51-.12.21-.15.48-.06.72.03.24.21.45.45.54zm2.76 1.08zM5.31 13.42c-.03-.51-.45-.9-.99-.9l-2.64.09c-.27 0-.51.12-.69.3-.18.18-.27.42-.27.66.03.51.45.9.99.9l2.64-.09c.54 0 .99-.45.96-.96zm-3.6.87zM19.91 5.62c.15.06.3.12.48.12h.03c.36 0 .69-.21.84-.51l1.23-2.16c.27-.45.06-1.02-.42-1.29-.15-.06-.3-.12-.48-.12-.36 0-.72.18-.87.51l-1.23 2.16c-.12.21-.15.48-.06.72.09.26.24.44.48.57zm.48-.06zM28.29 12.52l-2.64.09c-.27 0-.51.12-.69.3-.18.18-.27.42-.27.66.03.51.45.9.99.9l2.64-.09c.54-.03.99-.45.96-.96 0-.51-.45-.9-.99-.9zM24.29 9.46h.03c.18 0 .33-.06.48-.15l2.2-1.29c.24-.12.39-.33.45-.6.06-.24.03-.51-.12-.72-.18-.27-.51-.45-.84-.45-.18 0-.36.06-.54.15l-2.22 1.29c-.24.12-.39.33-.45.6-.06.24-.03.51.12.72.2.27.53.45.89.45zM15.01 5.4c-4.68 0-8.47 3.9-8.47 8.74 0 2.46 1.02 4.84 2.79 6.49.12.18.27.36.42.51.78.69.9 1.44 1.02 2.19.15.84.36 1.59.96 2.13-.09.09-.18.15-.27.27-.33.48-.18 1.14.3 1.47-.33.51-.15 1.2.39 1.5.03 0 .21.12.51.24.54.63 1.47 1.05 2.55 1.05 1.11 0 2.04-.45 2.58-1.11l.33-.12c.6-.24.87-.9.6-1.44l-.06-.09c.51-.27.72-.87.48-1.38-.09-.18-.21-.33-.36-.42.72-.63.87-1.53.96-2.46.06-.81.12-1.56.78-2.25 1.83-1.65 2.91-4.05 2.91-6.58.05-4.83-3.76-8.74-8.42-8.74zm4.21 14.03l-.06.03c-1.14 1.17-1.23 2.43-1.32 3.36-.09 1.26-.12 1.59-2.1 1.68l-.66.03c-2.13 0-2.19-.33-2.4-1.47-.15-.9-.36-2.1-1.62-3.24l-.15-.18-.06-.12-.06-.12c-1.47-1.32-2.31-3.24-2.31-5.26 0-3.81 2.94-6.91 6.55-6.91s6.55 3.09 6.55 6.91c-.05 2.05-.89 3.97-2.36 5.29z"/></g><path fill="#fff" d="M19.22 19.43l-.06.03c-1.14 1.17-1.23 2.43-1.32 3.36-.09 1.26-.12 1.59-2.1 1.68l-.66.03c-2.13 0-2.19-.33-2.4-1.47-.15-.9-.36-2.1-1.62-3.24l-.15-.18-.06-.12-.06-.12c-1.47-1.32-2.31-3.24-2.31-5.26 0-3.81 2.94-6.91 6.55-6.91s6.55 3.09 6.55 6.91c-.05 2.05-.89 3.97-2.36 5.29z"/><path fill="#AFD8F9" d="M14.98 5.4c-4.68 0-8.47 3.9-8.47 8.74 0 2.46 1.02 4.84 2.79 6.49.12.18.27.36.42.51.78.69.9 1.44 1.02 2.19.15.84.36 1.59.96 2.13-.09.09-.18.15-.27.27-.33.48-.18 1.14.3 1.47-.33.51-.15 1.2.39 1.5.03 0 .21.12.51.24.54.63 1.47 1.05 2.55 1.05l-.2-24.59z" opacity=".5"/></svg>